# xmcd CD database file
#
# Track frame offsets:
#	150
#	25550
#	53425
#	70580
#	97007
#	124512
#	147630
#	166127
#	180570
#	204740
#
# Disc length: 3017 seconds
#
# Revision: 0
# Processed by: cddbd v1.5.2PL0 Copyright (c) Steve Scherf et al.
# Submitted via: CDex 1.70beta2
#
DISCID=800bc70a
DTITLE=Reflections of nature - Mountain Stream
DYEAR=1996
DGENRE=New Age
TTITLE0=Mountain trail
TTITLE1=Peaceful journey
TTITLE2=Reflections
TTITLE3=Rippling Waters
TTITLE4=A Spanish lullabye
TTITLE5=Daydreaming
TTITLE6=Above the world
TTITLE7=The clouds roll by
TTITLE8=Quiet time
TTITLE9=The mysterious night
EXTD=YEAR: 1996
EXTT0=
EXTT1=
EXTT2=
EXTT3=
EXTT4=
EXTT5=
EXTT6=
EXTT7=
EXTT8=
EXTT9=
PLAYORDER=
